<svg id="_イヤー_2" xmlns="http://www.w3.org/2000/svg" viewBox="0 0 352.1 87.29"><defs><style>.cls-1{fill:#cb6515}</style></defs><g id="_イヤー_1-2"><path class="cls-1" d="M37.22 47.71l-.06 25.02c0 1.82-1.48 3.57-3.31 3.57s-3.3-1.93-3.3-3.75l.06-24.73-30.56-.19c1.68 22.15 20.14 39.6 42.74 39.66a42.75 42.75 0 0019.85-4.82l.09-34.65-25.51-.11z"/><path class="cls-1" d="M43 1.29C20.13 1.23 1.38 19.07 0 41.61l30.62-.1.02-7.49c0-1.82 1.48-2.83 3.31-2.83s3.3.94 3.3 2.76l-.02 7.65 25.51-.14.02-7.59c0-1.82 1.48-2.68 3.31-2.68s3.3.98 3.3 2.8l-.11 44.33a43.133 43.133 0 0016.62-33.94c.06-23.74-19.14-43.03-42.87-43.09zm-9.51 22.65a2.836 2.836 0 01.01-5.67c1.57 0 2.83 1.28 2.83 2.84 0 1.56-1.28 2.83-2.84 2.83zm32.12.08a2.836 2.836 0 01.01-5.67 2.836 2.836 0 01-.01 5.67zm132.74-22.9h-8.98c-5.57 0-10.1 4.53-10.1 10.1v68.46c0 1.86 1.51 3.37 3.37 3.37s3.37-1.51 3.37-3.37V11.22c0-1.85 1.51-3.37 3.37-3.37h8.98c1.86 0 3.37 1.51 3.37 3.37v68.46c0 1.86 1.51 3.37 3.37 3.37s3.37-1.51 3.37-3.37V11.22c0-5.57-4.53-10.1-10.1-10.1zm-29.18 1.12c-1.86 0-3.37 1.51-3.37 3.37v68.46c0 1.86-1.51 3.37-3.37 3.37h-8.98c-1.86 0-3.37-1.51-3.37-3.37V5.61c0-1.86-1.51-3.37-3.37-3.37s-3.37 1.51-3.37 3.37v68.46c0 5.57 4.53 10.1 10.1 10.1h8.98c5.57 0 10.1-4.53 10.1-10.1V5.61c0-1.86-1.51-3.37-3.37-3.37zM326.29 0c-1.86 0-3.37 1.51-3.37 3.37v78.56c0 1.86 1.51 3.37 3.37 3.37s3.37-1.51 3.37-3.37V3.37c0-1.86-1.51-3.37-3.37-3.37zm22.44 0c-1.86 0-3.37 1.51-3.37 3.37v78.56c0 1.86 1.51 3.37 3.37 3.37s3.37-1.51 3.37-3.37V3.37c0-1.86-1.51-3.37-3.37-3.37zm-72.95 77.44h-14.59c-1.86 0-3.37-1.51-3.37-3.37V11.22c0-1.85 1.51-3.37 3.37-3.37h14.59c1.86 0 3.37-1.51 3.37-3.37s-1.51-3.37-3.37-3.37h-14.59c-5.57 0-10.1 4.53-10.1 10.1v62.85c0 5.57 4.53 10.1 10.1 10.1h14.59c1.86 0 3.37-1.51 3.37-3.37s-1.51-3.37-3.37-3.37zm35.92 0h-14.59c-1.86 0-3.37-1.51-3.37-3.37V11.22c0-1.85 1.51-3.37 3.37-3.37h14.59c1.86 0 3.37-1.51 3.37-3.37s-1.51-3.37-3.37-3.37h-14.59c-5.57 0-10.1 4.53-10.1 10.1v62.85c0 5.57 4.53 10.1 10.1 10.1h14.59c1.86 0 3.37-1.51 3.37-3.37s-1.51-3.37-3.37-3.37z"/><path class="cls-1" d="M273.54 43.76h-8.98c-1.86 0-3.37-1.51-3.37-3.37s1.51-3.37 3.37-3.37h8.98c1.86 0 3.37 1.51 3.37 3.37s-1.51 3.37-3.37 3.37zM134.38 1.12h-14.59c-5.57 0-10.1 4.53-10.1 10.1v68.46c0 1.86 1.51 3.37 3.37 3.37s3.37-1.51 3.37-3.37V43.77h13.47c1.86 0 3.37-1.51 3.37-3.37s-1.51-3.37-3.37-3.37h-13.47V11.22c0-1.85 1.51-3.37 3.37-3.37h14.59c1.86 0 3.37-1.51 3.37-3.37s-1.51-3.37-3.37-3.37zm107.74 0h-24.69c-1.86 0-3.37 1.51-3.37 3.37s1.51 3.37 3.37 3.37h8.98v71.82c0 1.86 1.51 3.37 3.37 3.37s3.37-1.51 3.37-3.37V7.86h8.98c1.86 0 3.37-1.51 3.37-3.37s-1.51-3.37-3.37-3.37zm95.67 41.85c-2.65 0-4.81-2.16-4.81-4.81s2.16-4.81 4.81-4.81 4.81 2.16 4.81 4.81-2.16 4.81-4.81 4.81zm0-5.13c-.18 0-.32.14-.32.32 0 .36.64.36.64 0 0-.18-.14-.32-.32-.32z"/></g></svg>