<svg xmlns="http://www.w3.org/2000/svg" xmlns:xlink="http://www.w3.org/1999/xlink" width="108.103" height="335.895" viewBox="0 0 108.103 335.895"><defs><clipPath id="a"><rect width="108.103" height="335.895" fill="none"/></clipPath></defs><g clip-path="url(#a)"><path d="M178.612,316.521s.453,12.184.651,15.2a12.721,12.721,0,0,1-3.962,8.956c-.991.789-6.951,1.2-7.878.834s1.673-1.639,2.721-1.952a5.321,5.321,0,0,0,2.878-1.826c.433-.8.57-6.725-.109-7.213s-1.532,1.976-1.832,3.149-.538,3.451-1.157,3.394-.031-6.838-.043-8.994a31.884,31.884,0,0,1,1.414-6.643l-.407-3.842Z" transform="translate(-77.482 -146.656)" fill="#fd9e7f"/><path d="M20.473,320.444s.22,12.191.185,15.214a12.762,12.762,0,0,0,4.451,8.726c1.035.73,7.01.811,7.914.4s-1.765-1.546-2.826-1.8a5.332,5.332,0,0,1-2.975-1.665c-.473-.778-.939-6.684-.286-7.208s1.634,1.892,2,3.045.726,3.417,1.338,3.325-.345-6.83-.453-8.983a31.823,31.823,0,0,0-1.775-6.554l.194-3.86Z" transform="translate(-9.486 -148.473)" fill="#fd9e7f"/><path d="M24.352,109.37c-5.276,3.919-14.517,46.335-14.267,56.823.272,11.515,16.382,7.986,21.654-5.875s8.7-31.138,8.7-31.138-8.344-24.129-16.086-19.81" transform="translate(-4.671 -50.435)" fill="#f7f4f2"/><path d="M9.541,196.168a43.409,43.409,0,0,1,12.517,8.476c6.065,5.88-4.028,59.01-4.028,59.01L1.557,262.3s2.22-29.966,3.011-40.4c.926-12.249,1.545-24.455,4.973-25.733" transform="translate(-0.721 -90.892)" fill="#f7f4f2"/><path d="M128.827,617.689a1.117,1.117,0,0,0,1.07,1.1c1.107.174,2.007.3,2.007.3l-.131-1Z" transform="translate(-59.69 -286.198)" fill="#6b7193"/><path d="M153.068,619.071s.333,2.978-1.311,3.4-13.036.063-14.615.07-3.57-1.047-3.5-2.67c.052-1.3,19.427-.8,19.427-.8" transform="translate(-61.92 -286.794)" fill="#6b7193"/><path d="M140.481,590.795s.052,4.054.745,5.459,3.839,4.708,4.032,6.31-16.8,1.2-16.8,1.2a15.92,15.92,0,0,1,.35-6.936,18.622,18.622,0,0,0,.627-6.232c4.248,1.408,8.108,1.888,11.049.2" transform="translate(-59.411 -273.644)" fill="#7d8aad"/><path d="M149.617,617.8l-9.587-.112c-.488,0-6.4-.218-6.4-1.534,0-.839.379-2.914,1.734-3.781,3.115-1.994,13.167-2.264,16.082-.113a3.5,3.5,0,0,1,1.621,3.265c.024.8-.427,2.2-3.444,2.275" transform="translate(-61.913 -282.987)" fill="#7d8aad"/><path d="M128.332,612.658s-.109,5.6.442,6.108,3.348.68,3.8.43a61.8,61.8,0,0,0,.061-6.25c-.1,0-4.3-.289-4.3-.289" transform="translate(-59.457 -283.867)" fill="#6b7193"/><path d="M.014,619.352a2.729,2.729,0,0,0,1.078,2.457c1.272.842,15.3,1.466,17.783.723,2.8-.843,1.7-2.8,1.7-2.8Z" transform="translate(-0.001 -286.968)" fill="#6b7193"/><path d="M43.77,618.75s.1,2-1.154,2.061-6.8-.416-6.8-.416l-.244-1.685Z" transform="translate(-16.481 -286.671)" fill="#6b7193"/><path d="M23.45,591.393s-.29,4.1-1.078,5.478-4.738,4.473-6.365,5.746c-1.285,1.01,18.839,2.6,18.839,2.6a16.136,16.136,0,0,0,.054-7.034,18.843,18.843,0,0,1-.261-6.339c-4.383,1.171-8.313,1.428-11.188-.455" transform="translate(-7.389 -274.014)" fill="#7d8aad"/><path d="M5.559,617.062l7.413.324c.493.027,7.087.162,7.178-1.32.059-.943-.194-3.3-1.507-4.363-3.021-2.431-13.468-3.107-16.554-.857a4.519,4.519,0,0,0-2.076,3.929c.155,1.681,5.074,2.263,5.546,2.287" transform="translate(0 -282.391)" fill="#7d8aad"/><path d="M43.753,613.085a8.457,8.457,0,0,1-.771,3.5c-.726,1.07-8.309.383-8.309.383l-.239-4.037Z" transform="translate(-15.955 -283.995)" fill="#7d8aad"/><path d="M145.294,106.105c5.317,3.869,14.96,46.193,14.811,56.686-.166,11.517-16.306,8.137-21.711-5.671s-8.994-31.051-8.994-31.051,8.114-24.212,15.894-19.963" transform="translate(-59.956 -48.931)" fill="#f7f4f2"/><path d="M99.7,85.761l-8.213,4.857-8.021-4.76L83.372,69l16.234-.094Z" transform="translate(-38.629 -31.928)" fill="#fd9e7f"/><path d="M101.228,24.7c.031,4.863-.192,7.44-1.571,11.632-1.512,4.6-7.317,13.672-12.633,13.7-5.586.028-10.949-7.785-12.6-12.562-1.466-4.224-1.285-7.007-1.314-11.918-.072-12.309-.2-19.765,13.6-19.848,15.476-.091,14.448,6.694,14.522,19" transform="translate(-33.869 -2.641)" fill="#fd9e7f"/><path d="M84.758,91.855A10.53,10.53,0,0,1,76.4,95.713c-5.551-.456-7.878-3.259-7.878-3.259-6.228.872-17.438,4.637-17.354,4.57,4.161,14.3,18.818,19.35,22,19.33l3.793-.021s.623,0,3.795-.02,18.036-5.256,22.026-19.6c.09.066-10.25-3.911-18.024-4.853" transform="translate(-23.71 -42.56)" fill="#e8e8e8"/><path d="M98.957,102.268s-6.908,18.866-25.714,18.888c-18.8.2-25.744-18.428-25.744-18.428-6.326.883-3.895,3.164-3.895,3.164a327.535,327.535,0,0,0,.226,36.479c.582,7.939.813,16.721.891,24.17.1,9.963-.081,17.541-.081,17.541l57.945-.344s-.554-21.995.43-41.717c.789-15.766,1.161-37.286,1.161-37.286s1.111-1.657-5.221-2.468" transform="translate(-19.991 -47.384)" fill="#e8e8e8"/><path d="M168.144,192.506a43.46,43.46,0,0,0-12.029,9.156c-5.736,6.2,7.27,58.7,7.27,58.7L179.76,258.1s-3.871-29.8-5.23-40.173c-1.6-12.181-2.891-24.333-6.385-25.42" transform="translate(-71.657 -89.195)" fill="#f7f4f2"/><path d="M34.324,254.823s20.776-2.943,64.635-1.247c.564,4.249.993,18.188-.093,43.329-1.059,24.446-3.928,138.277-3.928,138.277-5.468,1.75-8.915,2.508-15.441.314L67.739,292.333a2.021,2.021,0,0,0-4.035-.02L40.654,436.092c-5.755,1.095-8.9,1.653-14.478.38,0,0,4.122-166.282,8.148-181.649" transform="translate(-12.128 -117.247)" fill="#372636"/><path d="M47.189,95.721s10.988,5.993,17.266,6.93c2.168-.735,13.11-4.4,15.167-7.8.264.089,9.981,2.112,15.938,5.823.061.241,4.354,71.764,4.354,71.764l10.611,100.085c-13.746,9.206-76.211,9.035-86.768-.538.244,0,7.162-96.321,7.162-96.321l-.106-72.905s7.5-5.986,16.375-7.042" transform="translate(-11.008 -43.95)" fill="#f7f4f2"/><path d="M78.651,10.646s.771,3.752,6.289,5.23S96.985,18.014,98,21.269s.767,3.351.767,3.351l1.5-1.258a29.062,29.062,0,0,1-.024-5.264c.236-3.26,1.468-7.529-2.561-11.768S87.371-.641,83.615.131a11.328,11.328,0,0,0-6,3.537S74.1,2.933,72.109,5.2a11.927,11.927,0,0,0-3.473,8.037C68.405,17,69.688,23.508,69.688,23.508l1.51,1.245s2.453-11.579,7.453-14.107" transform="translate(-31.789 0)" fill="#723f3c"/><path d="M71.8,47.79c.689,2.762.144,4.123-1.211,4.461s-3-.477-3.69-3.239-.151-5.274,1.2-5.61,3.01,1.625,3.7,4.388" transform="translate(-30.858 -20.092)" fill="#fd9e7f"/><path d="M120.511,47.5c-.656,2.77-.081,3.427,1.292,3.751s3.033.2,3.686-2.571.074-5.281-1.3-5.6-3.021,1.656-3.677,4.424" transform="translate(-55.712 -19.941)" fill="#fd9e7f"/><path d="M92.978,46.271a12.289,12.289,0,0,1-14.478.07c-3.393-2.88-5.59-8.42-5.366-12.041.231-1.931-1.226-4.1-2.193-4.332-.24.243,3.311-14.252,9.578-15.489s19.1,10.171,19.6,12.4.639,2.914.639,2.914-1.817,1.25-2.283,4.873c-.593,4.6-2.848,10.147-5.494,11.607" transform="translate(-32.864 -6.666)" fill="#723f3c"/><path d="M153.439,616.65a20.835,20.835,0,0,1-6.365.59c-3.492-.23-10.435-4.13-11.72-4.052s-.839,5.386-.839,5.386,2.425,1.13,3.37.964,13.18.02,14.042-.067,1.394-1.451,1.512-2.821" transform="translate(-62.291 -284.112)" fill="#6b7193"/><path d="M27.823,612.879s-6.359-.691-7.755-.234-2.566,3.319-4.693,4.324S4.283,619.656.052,616.8c.108.512,1.117,1.131,1.681,1.435s7.041.912,7.041.912,8.413.332,9.825-.2a3.733,3.733,0,0,0,1.963-1.643s4.518-.008,5.279-.025,1.253,0,1.355-.363a19.53,19.53,0,0,0,.627-4.043" transform="translate(-0.024 -283.789)" fill="#6b7193"/></g></svg>