<svg xmlns="http://www.w3.org/2000/svg" xmlns:xlink="http://www.w3.org/1999/xlink" width="175.256" height="133.927" viewBox="0 0 175.256 133.927"><defs><clipPath id="a"><rect width="175.256" height="133.927" fill="none"/></clipPath><clipPath id="b"><rect width="175.257" height="133.927" fill="none"/></clipPath><clipPath id="c"><rect width="12.122" height="12.433" fill="none"/></clipPath><clipPath id="d"><rect width="3.584" height="14.403" fill="none"/></clipPath><clipPath id="e"><rect width="5.215" height="4.068" fill="none"/></clipPath><clipPath id="f"><rect width="1.039" height="1.835" fill="none"/></clipPath><clipPath id="g"><rect width="1.059" height="34.848" fill="none"/></clipPath><clipPath id="h"><rect width="5.331" height="4.172" fill="none"/></clipPath><clipPath id="i"><rect width="19.167" height="10.054" fill="none"/></clipPath><clipPath id="j"><rect width="5.346" height="2.378" fill="none"/></clipPath><clipPath id="k"><rect width="2.366" height="8.148" fill="none"/></clipPath><clipPath id="l"><rect width="7.506" height="15.631" fill="none"/></clipPath><clipPath id="m"><rect width="17.043" height="10.933" fill="none"/></clipPath><clipPath id="n"><rect width="2.183" height="6.236" fill="none"/></clipPath><clipPath id="o"><rect width="1.575" height="1.517" fill="none"/></clipPath><clipPath id="p"><rect width="3.979" height="9.195" fill="none"/></clipPath></defs><g opacity="0.9"><g clip-path="url(#a)"><g clip-path="url(#b)"><path d="M225.385,759.273a1.084,1.084,0,0,1-.429,1.005c-.526.354-6.415.747-7.466.471-1.185-.312-.745-1.115-.745-1.115Z" transform="translate(-179.021 -627.351)" fill="#6b7193"/><path d="M196.1,759.657s-.019.809.511.822,3.332-.292,3.332-.292l.086-.685Z" transform="translate(-162.028 -627.54)" fill="#6b7193"/><path d="M199.257,725.513a7.794,7.794,0,0,0,.511,2.205,15.96,15.96,0,0,0,2.733,2.262c.553.395-7.889,1.242-7.889,1.242a6.3,6.3,0,0,1-.1-2.847,7.379,7.379,0,0,0,.044-2.567c1.854.43,3.508.494,4.7-.3" transform="translate(-160.617 -599.457)" fill="#7d8aad"/><path d="M224.327,750.46l-3.113.205c-.207.016-2.976.138-3.03-.462a2.3,2.3,0,0,1,.588-1.781c1.244-1.012,5.628-1.39,6.947-.511a1.813,1.813,0,0,1,.914,1.568c-.047.684-2.11.967-2.307.982" transform="translate(-180.269 -617.556)" fill="#7d8aad"/><path d="M194.7,753.24a3.332,3.332,0,0,0,.361,1.408c.317.426,3.936.009,3.936.009l.377-1.465Z" transform="translate(-160.87 -622.327)" fill="#7d8aad"/><path d="M225.633,747.087a7.39,7.39,0,0,0-2.355.432,5.332,5.332,0,0,1,2.054-.655l.3.223" transform="translate(-184.484 -617.098)" fill="#6b7193"/><path d="M181.209,761.783a1.084,1.084,0,0,1-.429,1.005c-.526.355-6.415.747-7.466.471-1.185-.312-.745-1.115-.745-1.115Z" transform="translate(-142.52 -629.425)" fill="#6b7193"/><path d="M151.925,762.167s-.019.809.511.822,3.332-.292,3.332-.292l.086-.685Z" transform="translate(-125.528 -629.614)" fill="#6b7193"/><path d="M155.082,728.023a7.8,7.8,0,0,0,.511,2.205,15.956,15.956,0,0,0,2.733,2.262c.553.395-7.889,1.242-7.889,1.242a6.3,6.3,0,0,1-.1-2.847,7.379,7.379,0,0,0,.044-2.567c1.854.43,3.508.494,4.7-.3" transform="translate(-124.117 -601.531)" fill="#7d8aad"/><path d="M180.151,752.97l-3.113.205c-.207.016-2.976.138-3.03-.462a2.3,2.3,0,0,1,.588-1.781c1.244-1.012,5.628-1.39,6.947-.511a1.813,1.813,0,0,1,.914,1.568c-.047.684-2.11.967-2.307.982" transform="translate(-143.769 -619.63)" fill="#7d8aad"/><path d="M150.523,755.751a3.332,3.332,0,0,0,.361,1.408c.317.426,3.936.009,3.936.009l.377-1.465Z" transform="translate(-124.37 -624.401)" fill="#7d8aad"/><path d="M181.457,749.6a7.389,7.389,0,0,0-2.355.432,5.331,5.331,0,0,1,2.054-.655l.3.223" transform="translate(-147.983 -619.172)" fill="#6b7193"/><path d="M181.51,397.049l-2.83,57.943a9.039,9.039,0,0,1-6.49-.172s-3.4-46.113-3.778-56.01Z" transform="translate(-139.151 -328.063)" fill="#372636"/><path d="M135.982,397.049l-2.83,57.943a9.039,9.039,0,0,1-6.49-.172s-3.4-46.113-3.778-56.01Z" transform="translate(-101.533 -328.063)" fill="#372636"/><path d="M289.528,103.737l3.594-3.582a2.018,2.018,0,0,0,.423-.615l1.311-2.977,2.237.986-1.313,2.977a2.026,2.026,0,0,0-.17.727l-.221,5.069a1.527,1.527,0,0,1-2.142,1.331l-3.257-1.436a1.528,1.528,0,0,1-.463-2.48" transform="translate(-238.852 -79.785)" fill="#efefef"/><path d="M295.389,137.246a1.527,1.527,0,0,1-2.142,1.331l-3.257-1.436a1.528,1.528,0,0,1-.463-2.48l.674-.672,5.229,2.305Z" transform="translate(-238.852 -110.709)" fill="#efefef"/><path d="M295.389,137.246a1.527,1.527,0,0,1-2.142,1.331l-3.257-1.436a1.528,1.528,0,0,1-.463-2.48l.674-.672,5.229,2.305Z" transform="translate(-238.852 -110.709)" fill="#5e6a8e"/><path d="M308.74,131.193c.014-.5-.06-1.064.007-1.827.06-.7,1.6-2.078,1.613-3.4a3.483,3.483,0,0,0-.289-1.426c.055-.461.271-.727.153-1.182a2.917,2.917,0,0,0-.36-.753,2.12,2.12,0,0,0,.344-1.286,2.517,2.517,0,0,0-.24-.7c-.1-.5.081-.591.059-.9-.068-.909-2.12-1.651-2.416-1.232-.422.6.325,1.534.973,1.841a6.807,6.807,0,0,0-1.582.562c-.388.187-1.046.657-1.053,1.01-.01.4.281.654.991.767,0,0-.675.526-.669.9a.75.75,0,0,0,.579.713.864.864,0,0,0-.249.463.854.854,0,0,0,.061.4c-.092.262-.207.547-.309.591-.467.2-2.5-.745-2.5-.745-.234.189.12.822.419,2.057.448,1.849.116,2.117.528,2.747Z" transform="translate(-250.996 -97.798)" fill="#7f87ab"/><path d="M94.935,134.436a22.689,22.689,0,0,1,6.133,1.152c4.746,1.725,8.422,10.279,12.136,11.452a14.005,14.005,0,0,1,3.11-4.846,7.711,7.711,0,0,1,2.743.606,6.77,6.77,0,0,1,2.123,1.514c-.8,1.728-2.762,10.622-7.11,13.391-4.111,2.616-10.649-.839-10.649-.839-.107,3.555.1,4.938.682,6.458,4.178,10.909,3.847,36.872,3.847,36.872-3.1.472-7.353.946-11.589,1.233-.351.023-.9-2.212-.9-2.212-.3.8-.732,2.312-1.016,2.328-6.242.336-12.061.195-13.649-1.044a60.206,60.206,0,0,0,1.534-13.878c.052-3.5-.835-8.67-.585-17.153.036-1.229.162-2.506.162-2.506-5.162-3.541-6.627-18-5.695-24.886.551-4.072,6.271-7.1,7.58-7.67Z" transform="translate(-62.756 -111.057)" fill="#efefef"/><path d="M134.442,134.436c.354,6.33-1.334,14.479-1.334,14.479s-5.819-9.642-9.34-14.5c0,0,1.147.967,5.469.477a42.472,42.472,0,0,1,5.205-.452" transform="translate(-102.264 -111.057)" fill="#7f87ab"/><g transform="translate(18.669 25.584)" opacity="0.15"><g clip-path="url(#c)"><path d="M107.622,147.283a22.745,22.745,0,0,0,3.048,3.219,26.439,26.439,0,0,0,4.079,2.314.107.107,0,0,1-.026.193,4.239,4.239,0,0,0-1.743.822,73.95,73.95,0,0,1,6.556,5.67c.1.095-.053.244-.15.149a73.017,73.017,0,0,0-6.631-5.731.105.105,0,0,1-.022-.165,4.443,4.443,0,0,1,1.677-.878,23.851,23.851,0,0,1-3.8-2.151,22.216,22.216,0,0,1-3.142-3.295c-.087-.1.062-.254.149-.149" transform="translate(-107.447 -147.247)" fill="#281a24"/></g></g><g transform="translate(30.924 23.565)" opacity="0.15"><g clip-path="url(#d)"><path d="M178.56,148.239a16.193,16.193,0,0,0,.716-1.964,19,19,0,0,1,.653-2.088,5.608,5.608,0,0,1,.449-.883,6.132,6.132,0,0,0,.553-.846l-1.283-.1c-.071-.006-.143-.088-.092-.159l1.209-1.647a5.406,5.406,0,0,0,.519-.72,1.615,1.615,0,0,0,0-.922,14.69,14.69,0,0,0-.792-3.15c-.049-.127.154-.182.2-.056a14.838,14.838,0,0,1,.829,3.412,1.6,1.6,0,0,1,.016.657,2.617,2.617,0,0,1-.469.721l-1.224,1.67,1.242.1a.106.106,0,0,1,.1.133,2.591,2.591,0,0,1-.465.783,5.031,5.031,0,0,0-.532.936,16.745,16.745,0,0,0-.71,2.22,14.247,14.247,0,0,1-.636,1.783,7.994,7.994,0,0,0-.655,1.84c-.021.134-.225.077-.2-.056a7.2,7.2,0,0,1,.575-1.659" transform="translate(-177.983 -135.628)" fill="#281a24"/></g></g><path d="M215.322,36.916a5.841,5.841,0,0,1,.587,5.2,7.732,7.732,0,0,0-.526,2.975,3.044,3.044,0,0,1-.443,2.466c-.084.107-.233-.044-.15-.15.725-.922.332-1.81.359-2.852A8.186,8.186,0,0,1,215.6,42.4a7.349,7.349,0,0,0,.456-2.481,5.2,5.2,0,0,0-.885-2.852c-.083-.107.066-.257.149-.15" transform="translate(-177.45 -30.471)" fill="#382632"/><path d="M133.469,39.978a1.607,1.607,0,0,0,1.212-1.536l.059-4.313a11.3,11.3,0,0,1-1.177-5.943c.728-4.555,4.052-8.138,7.756-7.877,4.265.3,6.169,3.99,5.981,8.6-.172,4.243-3.3,7.866-6.038,8.349l-.01,1.323a1.608,1.608,0,0,0,1.205,1.569,5.173,5.173,0,0,1-3.8,1.956c-4.5,0-5.186-2.126-5.186-2.126" transform="translate(-110.279 -16.769)" fill="#e68770"/><g transform="translate(25.769 17.179)" opacity="0.3" style="mix-blend-mode:multiply;isolation:isolate"><g clip-path="url(#e)"><path d="M153.52,102.939l.006-.76c-2.242.1-5.215-3.309-5.215-3.309a5.74,5.74,0,0,0,5.209,4.068" transform="translate(-148.311 -98.871)" fill="#e68770"/></g></g><path d="M133.248,12.279a.615.615,0,0,0,.182.1,3.36,3.36,0,0,1,2.805,2.235c1.31,2.723.118,4.651-.878,6.548a10.167,10.167,0,0,1-1.1-2.326,11.194,11.194,0,0,1-.5-2.883c-1.481,2.653-6.389,2.653-9.408,3.7a5.131,5.131,0,0,0-1.258,2.659s-.036,1.856-.1,3.164c-.059,1.178-6.4-2.007-2.915-10.54,1.143-2.8,7.214-6.7,13.167-2.652" transform="translate(-98.352 -8.705)" fill="#382632"/><path d="M142.614,69.233h0" transform="translate(-117.835 -57.203)" fill="#ff7a5a"/><path d="M180.407,95.785a1.537,1.537,0,0,0,1.247-.212c.029-.02.028-.053-.016-.062,0,0-.712-.145-1.168-.248-.477-.108-1.17-.3-1.17-.3-.044-.01-.073.014-.045.066a1.76,1.76,0,0,0,1.153.76" transform="translate(-148.1 -78.459)" fill="#fff"/><path d="M167.336,59.542c.091-.153.036-.35-.379-.437a3.578,3.578,0,0,0-1.576.2c-1.006.383-1.321.77-1.1.663a5.361,5.361,0,0,1,1.77-.463c.474-.05,1.19.207,1.288.04" transform="translate(-135.681 -48.813)" fill="#382632"/><path d="M195.286,62.084c-.032-.174.087-.34.507-.28a3.566,3.566,0,0,1,1.412.726c.814.7.977,1.176.807,1a5.375,5.375,0,0,0-1.5-1.043c-.428-.208-1.189-.214-1.224-.4" transform="translate(-161.352 -51.055)" fill="#382632"/><g transform="translate(32.178 13.601)" opacity="0.35" style="mix-blend-mode:multiply;isolation:isolate"><g clip-path="url(#f)"><path d="M186.129,78.339c.009.275.037.549.067.823a3.285,3.285,0,0,1,.036.591.38.38,0,0,1-.146.314.509.509,0,0,1-.413.013.8.8,0,0,1-.47-.471c-.032-.079.092-.124.124-.045a.642.642,0,0,0,.484.414c.128.019.246-.007.279-.144a1.824,1.824,0,0,0-.017-.588c-.031-.3-.064-.6-.074-.9,0-.084.127-.1.131-.011" transform="translate(-185.197 -78.281)" fill="#e68770"/></g></g><path d="M199.336,76.169a.347.347,0,1,0,.394-.33.364.364,0,0,0-.394.33" transform="translate(-164.699 -62.659)" fill="#382632"/><path d="M174.56,73.1a.347.347,0,1,0,.394-.331.366.366,0,0,0-.394.331" transform="translate(-144.228 -60.123)" fill="#382632"/><path d="M97.564,84.376a3.271,3.271,0,0,0,.43,1.748,1.7,1.7,0,0,0,.594.582c.168.094.324.087.374.293s-.128.369-.224.561a1.961,1.961,0,0,0,.1,1.961c.1.186.375.473.252.705-.057.109-.224.2-.3.31a1.912,1.912,0,0,0-.322.865,4.114,4.114,0,0,0,1.529,3.616c.106.087.259-.064.151-.152a4.065,4.065,0,0,1-1.361-2.089,2.327,2.327,0,0,1,.424-2.369.375.375,0,0,0,.123-.487,8.066,8.066,0,0,1-.545-1.039,1.685,1.685,0,0,1,.2-1.322c.1-.187.357-.415.284-.654-.066-.218-.356-.273-.529-.363a1.541,1.541,0,0,1-.63-.648,3.554,3.554,0,0,1-.286-2.156,2.833,2.833,0,0,1,1.192-2.031,6.757,6.757,0,0,1,1.12-.431.531.531,0,0,0,.382-.447c.045-.354-.1-.676.01-1.038a.96.96,0,0,1,.793-.7c.07-.012.142-.02.214-.025a1.308,1.308,0,0,0-.17.1,1.662,1.662,0,0,0-.648,1.471,3.477,3.477,0,0,0,.122.771,2.84,2.84,0,0,0-2,1.312,3.559,3.559,0,0,0,.878,4.011A2.726,2.726,0,0,0,99.671,90a3.7,3.7,0,0,0-.149,2.48,3.523,3.523,0,0,0,1.734,2.545,2.543,2.543,0,0,0,3.654-2.038,1.83,1.83,0,0,0,.55-.063,2.483,2.483,0,0,0,1.433-1.25,3.047,3.047,0,0,0,.37-1.208,2.006,2.006,0,0,0,.36-.205,2.2,2.2,0,0,0,.493-3.032,2.328,2.328,0,0,0-.149-1.62,3.258,3.258,0,0,0-1.211-1.58c-.045-.811-2.72-3.578-3.056-4.787-.039-.207-.271-.179-.543-.241a4.792,4.792,0,0,0-.563-.1.979.979,0,0,0,.258-.162c.1-.091-.048-.243-.152-.152-.562.5-1.457.028-2.031.56a1.346,1.346,0,0,0-.392.789,1.946,1.946,0,0,0,0,.512c.025.205.109.424-.135.588a1.457,1.457,0,0,1-.356.118,2.854,2.854,0,0,0-1.607,1.063,3.691,3.691,0,0,0-.61,2.153" transform="translate(-80.612 -64.915)" fill="#382632"/><path d="M332.721,129.4a2.154,2.154,0,0,0-1.052-.12.106.106,0,1,1,0-.212,2.293,2.293,0,0,1,1.109.127.109.109,0,0,1,.074.13.107.107,0,0,1-.131.074" transform="translate(-273.954 -106.623)" fill="#687496"/><path d="M324.483,151.636a1.082,1.082,0,0,0-.682-.159l-.7-.048a8.878,8.878,0,0,0-1.524.061c-.136.014-.134-.2,0-.212a9.538,9.538,0,0,1,1.688-.05c.265.018.53.032.8.055a.894.894,0,0,1,.57.2c.1.094-.051.243-.15.15" transform="translate(-265.622 -124.938)" fill="#687496"/><path d="M324.747,141.859a2.407,2.407,0,0,0-.638-.054q-.326,0-.653.012c-.443.018-.887.056-1.327.11-.136.016-.134-.2,0-.212q.686-.086,1.379-.113a4.434,4.434,0,0,1,1.294.051.106.106,0,0,1-.055.2" transform="translate(-266.077 -116.983)" fill="#687496"/><path d="M323.119,158.11c-.11-.227-.448-.152-.653-.164-.261-.015-.523-.048-.78-.085a2.5,2.5,0,0,1-1.281-.509c-.105-.088.046-.237.149-.15a2.678,2.678,0,0,0,1.474.49c.262.029.52.034.783.047a.535.535,0,0,1,.49.264c.059.123-.124.23-.183.107" transform="translate(-264.706 -129.867)" fill="#687496"/><path d="M248.635,159.378l1.956-4.682a2.035,2.035,0,0,0,.154-.731l.078-3.252,2.443.058-.077,3.253a2.013,2.013,0,0,0,.12.737l1.729,4.77a1.527,1.527,0,0,1-1.473,2.048l-3.558-.086a1.527,1.527,0,0,1-1.373-2.115" transform="translate(-205.336 -124.527)" fill="#f3f3f3"/><path d="M255.039,196.558a1.527,1.527,0,0,1-1.473,2.048l-3.558-.086a1.527,1.527,0,0,1-1.373-2.115l.367-.878,5.712.137Z" transform="translate(-205.336 -161.554)" fill="#efefef"/><path d="M255.039,196.558a1.527,1.527,0,0,1-1.473,2.048l-3.558-.086a1.527,1.527,0,0,1-1.373-2.115l.367-.878,5.712.137Z" transform="translate(-205.336 -161.554)" fill="#281a24"/><path d="M215.287,204.055c.9-.7,2.3-2.646,3.749-3.194,3.031-1.151,5.91-2.562,6.411-3.514a1.3,1.3,0,0,0-.108-1.1c.358-.48.7-.533.758-.831.108-.6-.117-.821-.117-.821.229-.494.509-.447.455-1.055a.959.959,0,0,0-.257-.614.743.743,0,0,0,.235-1.16c-.164-.288-.917.044-2.869.636a4.96,4.96,0,0,1-2.6.307c-.2-.271-.292-.64.352-2.107.264-.6,1.545-1.654.857-1.936-.545-.223-1.672.772-2.707,2.112-1.582,2.049-.966,3.1-2.093,4.837a8.731,8.731,0,0,1-3.14,2.581,6.907,6.907,0,0,0,1.074,5.86" transform="translate(-176.832 -155.859)" fill="#7f87ab"/><g transform="translate(32.355 53.254)" opacity="0.15"><g clip-path="url(#g)"><path d="M186.4,306.589c.524,4.476.775,8.985.854,13.5s-.013,9.038-.164,13.554c-.086,2.539-.191,5.078-.3,7.617a.088.088,0,1,1-.176,0c.186-4.516.373-9.033.451-13.553s.047-9.03-.2-13.537q-.209-3.8-.643-7.575c-.015-.121.162-.12.176,0" transform="translate(-186.219 -306.499)" fill="#281a24"/></g></g><g transform="translate(36.768 52.368)" opacity="0.15"><g clip-path="url(#h)"><path d="M211.789,301.441a12.791,12.791,0,0,0,5.1,3.944c.125.053.018.235-.106.182a12.923,12.923,0,0,1-5.145-3.977c-.082-.106.066-.257.149-.149" transform="translate(-211.616 -301.405)" fill="#281a24"/></g></g><g transform="translate(19.197 48.395)" opacity="0.15"><g clip-path="url(#i)"><path d="M110.535,286.174c-.112-.076-.007-.26.107-.183,1.333.9,3.365.867,4.891.676a15.2,15.2,0,0,0,5.39-2.034,35.169,35.169,0,0,0,8.551-6.067c.1-.1.246.052.15.15a36.62,36.62,0,0,1-9.082,6.365,14.027,14.027,0,0,1-5.2,1.819c-.189.02-.385.037-.587.051a10.764,10.764,0,0,1-2.441,1.626c-.12.059-.228-.123-.106-.182a10.614,10.614,0,0,0,2.192-1.429,6.63,6.63,0,0,1-3.864-.794" transform="translate(-110.488 -278.535)" fill="#281a24"/></g></g><g transform="translate(52.043 33.326)" opacity="0.15"><g clip-path="url(#j)"><path d="M304.693,194.154a8.78,8.78,0,0,0-5.06-2.137c-.137-.011-.137-.223,0-.212a9.014,9.014,0,0,1,5.209,2.2c.1.09-.047.24-.149.15" transform="translate(-299.531 -191.804)" fill="#281a24"/></g></g><g transform="translate(38.848 28.632)" opacity="0.15"><g clip-path="url(#k)"><path d="M225.749,172.862a22.941,22.941,0,0,0-2.146-7.911c-.066-.12.118-.227.183-.107a23.124,23.124,0,0,1,2.168,7.963c.018.134-.186.191-.2.056" transform="translate(-223.589 -164.791)" fill="#281a24"/></g></g><g transform="translate(17.088 30.222)" opacity="0.15"><g clip-path="url(#l)"><path d="M105.648,189.5c-.84-5.655-2.4-11.779-7.254-15.351-.109-.08,0-.264.107-.183,4.9,3.609,6.5,9.758,7.352,15.478.019.133-.185.191-.2.056" transform="translate(-98.347 -173.94)" fill="#281a24"/></g></g><g transform="translate(20.026 38.047)" opacity="0.15"><g clip-path="url(#m)"><path d="M115.274,229.756a5.179,5.179,0,0,1,2.631-2.218,7.783,7.783,0,0,1,2.093-.365,11.989,11.989,0,0,0,2.591-.574c1.311-.412,2.613-.858,3.913-1.311a59.006,59.006,0,0,0-.437-6.205c-.017-.135.2-.134.211,0a58.839,58.839,0,0,1,.435,6.135c1.834-.642,3.657-1.311,5.464-2.03.126-.051.182.154.055.2-1.829.729-3.679,1.4-5.539,2.054a.1.1,0,0,1-.092.031c-1.12.39-2.241.781-3.371,1.142a20.272,20.272,0,0,1-2.2.632c-.765.151-1.552.126-2.316.279a4.937,4.937,0,0,0-3.253,2.334.106.106,0,0,1-.183-.107" transform="translate(-115.258 -218.981)" fill="#281a24"/></g></g><g transform="translate(34.158 43.568)" opacity="0.15"><g clip-path="url(#n)"><path d="M198.6,256.961a4.821,4.821,0,0,1-.847-1.331,14.554,14.554,0,0,1-.668-1.507,6.794,6.794,0,0,1-.433-3.291c.019-.135.223-.077.205.056a6.567,6.567,0,0,0,.432,3.179,14.013,14.013,0,0,0,.647,1.457,4.636,4.636,0,0,0,.814,1.287c.1.1-.052.245-.15.15" transform="translate(-196.598 -250.755)" fill="#281a24"/></g></g><path d="M262.764,213.178a3.41,3.41,0,0,1-.986.334l-1.09.285a5.178,5.178,0,0,1-2.11.247c-.134-.021-.078-.225.056-.2a5.133,5.133,0,0,0,2.075-.267l1.013-.264a3.257,3.257,0,0,0,.934-.312c.116-.074.222.11.108.182" transform="translate(-213.588 -175.974)" fill="#687496"/><path d="M260.6,222.554c-.75.2-1.514.367-2.279.506a4.514,4.514,0,0,1-2.124-.015c-.131-.039-.075-.244.056-.2a4.515,4.515,0,0,0,2.169-.014c.71-.138,1.423-.288,2.122-.476a.106.106,0,0,1,.056.2" transform="translate(-211.618 -183.714)" fill="#687496"/><path d="M266.377,232.573a5.576,5.576,0,0,1-2.442,1.2c-.133.029-.19-.176-.057-.2a5.349,5.349,0,0,0,2.349-1.147c.1-.088.255.062.15.15" transform="translate(-217.967 -192.018)" fill="#687496"/><path d="M522.789,318.336h0a1.483,1.483,0,0,0,1.483-1.483V303.124h-2.967v13.729a1.483,1.483,0,0,0,1.483,1.483" transform="translate(-430.73 -250.457)" fill="#cbcacf"/><path d="M487.014,318.336h0a1.483,1.483,0,0,0,1.483-1.483V303.124h-2.967v13.729a1.483,1.483,0,0,0,1.483,1.483" transform="translate(-401.171 -250.457)" fill="#cbcacf"/><path d="M597.936,318.336h0a1.483,1.483,0,0,0,1.483-1.483V303.124h-2.967v13.729a1.483,1.483,0,0,0,1.483,1.483" transform="translate(-492.821 -250.457)" fill="#cbcacf"/><path d="M600.456,361.023h0a.954.954,0,0,0,.954-.953v-4.557H599.5v4.557a.954.954,0,0,0,.954.953" transform="translate(-495.34 -293.743)" fill="#393939"/><path d="M525.308,361.023h0a.954.954,0,0,0,.954-.953v-4.557h-1.907v4.557a.953.953,0,0,0,.953.953" transform="translate(-433.249 -293.743)" fill="#666646"/><path d="M562.3,318.336h0a1.483,1.483,0,0,0,1.483-1.483V303.124h-2.967v13.729a1.483,1.483,0,0,0,1.483,1.483" transform="translate(-463.378 -250.457)" fill="#cbcacf"/><path d="M564.822,340.993h0a.954.954,0,0,0,.954-.953v-8.685h-1.907v8.685a.953.953,0,0,0,.954.953" transform="translate(-465.897 -273.782)" fill="#456b99"/><rect width="27.548" height="0.674" transform="translate(82.1 69.509)" fill="#393939"/><rect width="1.471" height="23.357" transform="translate(69.326 46.033)" fill="#393939"/><path d="M336.366,287.453v-9.182h2.915v9.182a4.513,4.513,0,1,1-2.915,0" transform="translate(-275.398 -229.922)" fill="#cbcacf"/><rect width="18.389" height="0.793" transform="translate(52.409 69.39)" fill="#393939"/><rect width="9.462" height="2.207" transform="translate(59.888 51.564)" fill="#393939"/><path d="M339.382,349.339a3.458,3.458,0,1,0,6.917,0c0-1.91-6.917-1.91-6.917,0" transform="translate(-280.415 -287.458)" fill="#666646"/><path d="M403.791,300.84h2.458a.552.552,0,1,0,0-1.1h-2.458a.552.552,0,0,0,0,1.1" transform="translate(-333.177 -247.658)" fill="#393939"/><rect width="27.548" height="0.674" transform="translate(82.1 58.727)" fill="#393939"/><rect width="0.389" height="11.457" transform="translate(109.259 58.727)" fill="#393939"/><rect width="0.388" height="11.457" transform="translate(81.905 58.727)" fill="#393939"/><path d="M0,404.652H143.34l.006-1.712H.005Z" transform="translate(0 -332.931)" fill="#393939"/><path d="M750.731,468.492h1.152V407.05l-1.152,1Z" transform="translate(-620.293 -336.326)" fill="#393939"/><rect width="1.152" height="61.334" transform="translate(13.698 70.832)" fill="#393939"/><path d="M676.407,305.323V297.59h2.455v7.733a3.8,3.8,0,1,1-2.455,0" transform="translate(-556.756 -245.884)" fill="#cbcacf"/><rect width="10.577" height="0.881" transform="translate(115.545 62.256)" fill="#393939"/><rect width="10.535" height="1.083" transform="translate(115.566 68.927)" fill="#393939"/><rect width="0.923" height="6.746" transform="translate(120.506 62.972)" fill="#393939"/><rect width="0.923" height="6.746" transform="translate(115.566 62.972)" fill="#393939"/><rect width="0.923" height="6.746" transform="translate(125.178 62.696)" fill="#393939"/><rect width="20.482" height="3.966" transform="translate(24.621 66.027)" fill="#e06558"/><rect width="19.508" height="2.478" transform="translate(24.508 66.771)" fill="#f7f7f7"/><rect width="20.482" height="3.966" transform="translate(23.209 62.061)" fill="#666646"/><rect width="19.508" height="2.478" transform="translate(23.097 62.805)" fill="#f7f7f7"/><path d="M901.526,436.846l-1.5.274-1.112-6.115,1.506-.274Z" transform="translate(-742.727 -355.893)" fill="#f7f4f2"/><rect width="6.216" height="1.53" transform="translate(154.297 77.838) rotate(-10.346)" fill="#f7f4f2"/><path d="M841.97,759.705a1.084,1.084,0,0,0,.429,1.005c.526.354,6.416.747,7.466.471,1.185-.312.745-1.115.745-1.115Z" transform="translate(-695.674 -627.708)" fill="#6b7193"/><path d="M894.068,760.089s.019.809-.511.822-3.332-.292-3.332-.292l-.086-.685Z" transform="translate(-735.479 -627.897)" fill="#6b7193"/><path d="M870.91,725.945a7.794,7.794,0,0,1-.511,2.205,15.952,15.952,0,0,1-2.733,2.262c-.553.4,7.889,1.242,7.889,1.242a6.294,6.294,0,0,0,.1-2.847,7.378,7.378,0,0,1-.044-2.567c-1.854.43-3.508.494-4.7-.3" transform="translate(-716.889 -599.814)" fill="#7d8aad"/><path d="M844.3,750.892l3.113.205c.207.016,2.976.138,3.03-.462a2.3,2.3,0,0,0-.588-1.781c-1.244-1.012-5.628-1.39-6.947-.512a1.813,1.813,0,0,0-.914,1.568c.047.683,2.11.967,2.307.982" transform="translate(-695.695 -617.913)" fill="#7d8aad"/><path d="M891.925,753.674a3.332,3.332,0,0,1-.361,1.408c-.317.426-3.936.009-3.936.009l-.377-1.465Z" transform="translate(-733.093 -622.685)" fill="#7d8aad"/><path d="M872.022,747.52a7.387,7.387,0,0,1,2.354.432,5.328,5.328,0,0,0-2.054-.655l-.3.223" transform="translate(-720.51 -617.456)" fill="#6b7193"/><path d="M831.627,117a34.73,34.73,0,0,0-.4,10.4c1.5,2.356,3.684-7.9,3.684-7.9Z" transform="translate(-686.645 -96.676)" fill="#e8e8e8"/><path d="M839.33,72.89l-6.061,5.651-1.787-2.87a13.872,13.872,0,0,0-1.369-6.21l6.245-3.31a18.358,18.358,0,0,0,2.972,6.738" transform="translate(-685.883 -54.658)" fill="#fd9e7f"/><path d="M806.073,11.057a16.456,16.456,0,0,1,.341,4.74c-.081,3-1.857,6.53-6.268,6.917-3.531.309-5.151-7.077-5.579-9.022-1.075-4.874-1.76-7.819,3.912-8.98,6.364-1.3,6.519,1.472,7.594,6.345" transform="translate(-655.908 -3.628)" fill="#fd9e7f"/><path d="M864.759,396.574l2.83,57.943a9.039,9.039,0,0,0,6.49-.172s3.4-46.113,3.778-56.01Z" transform="translate(-714.509 -327.67)" fill="#372636"/><path d="M814.042,62.167c.046.212-.033.41-.178.439s-.3-.119-.348-.332.031-.409.178-.439.3.119.347.333" transform="translate(-672.159 -51.088)" fill="#242730"/><g transform="translate(142.273 12.368)" opacity="0.16" style="mix-blend-mode:multiply;isolation:isolate"><g clip-path="url(#o)"><path d="M820.409,71.785a.762.762,0,0,1-.607.9.789.789,0,0,1-.934-.585.759.759,0,0,1,.606-.9.787.787,0,0,1,.935.584" transform="translate(-818.85 -71.185)" fill="#fd9e7f"/></g></g><path d="M806.682,54.387a.606.606,0,0,1,.408-.484,2.607,2.607,0,0,1,1.775.165c.482.255-.122.4-.413.413s-1.787.406-1.769-.093" transform="translate(-666.523 -44.462)" fill="#723f3c"/><g transform="translate(145.529 10.619)" opacity="0.34" style="mix-blend-mode:multiply;isolation:isolate"><g clip-path="url(#p)"><path d="M839.922,63.305s-.016,3.943-2.334,6.028a1.648,1.648,0,0,0,2.773.391c1.73-1.6,1.177-6.108.882-7.718s-1.794-.541-1.794-.541Z" transform="translate(-837.588 -61.118)" fill="#fd9e7f"/></g></g><path d="M799.774,68.128a19.922,19.922,0,0,0-.138,2.793c.025.353,1.328.418,1.328.418s-.267-2.671-1.19-3.211" transform="translate(-660.697 -56.291)" fill="#fd9e7f"/><path d="M791.276,7.972a5.934,5.934,0,0,1,1.081-1.952c-.064.013-.388,1.927,1.977,2.44s4.283.391,4.794,1.957c.48.373.6-.417.6-.417a5.156,5.156,0,0,1,1.641,2.06c.555,1.318,2.705,1.044,2.461-1.9-.135-1.617,2.182-2.589,1.453-5.2A6.169,6.169,0,0,0,799.228.009a8.575,8.575,0,0,0-6.345,2.023,1.949,1.949,0,0,0-2.108,1.1c-.744,1.443-.319,3.324.5,4.842" transform="translate(-653.061 0)" fill="#723f3c"/><path d="M838.734,51.23c-.035,1.152.256,1.366.852,1.382s1.262-.17,1.3-1.322-.418-2.1-1.011-2.115-1.1.9-1.138,2.055" transform="translate(-693.003 -40.631)" fill="#fd9e7f"/><path d="M810.2,89.884h.009a4.944,4.944,0,0,0,2.288-.979.064.064,0,0,0,.011-.093.07.07,0,0,0-.1-.012,4.873,4.873,0,0,1-2.217.951.067.067,0,0,0,.005.134" transform="translate(-669.375 -73.36)" fill="#ff7e69"/><path d="M830.94,101.409a23.792,23.792,0,0,0-7.216,5.248c-3.407,3.705-2.443,9.61-2.8,12.153-.124.9,2.646,8.963,3.089,18.1.811,16.683-.377,38.584-.377,38.584s13.1,6.212,29.907-3.935c-.02-.077-.619-22.526-5.431-39.83-3.255-11.714-8.732-22.141-9.261-24.2-1.31-5.106-4.81-7.708-7.916-6.121" transform="translate(-678.29 -83.407)" fill="#f7f4f2"/><path d="M823.163,111.979h.006c1.239-.1,4.024-2.793,4.142-2.907l.034-.032-.153-.991a4.454,4.454,0,0,1,1.348.1l.052.026.049-.034a42.757,42.757,0,0,0,7.025-6.807.091.091,0,0,0-.017-.128.1.1,0,0,0-.134.016,42.587,42.587,0,0,1-6.946,6.74,5.861,5.861,0,0,0-1.494-.1l-.105,0,.17,1.1c-.323.309-2.887,2.734-3.988,2.82a.092.092,0,0,0-.086.1.093.093,0,0,0,.094.085" transform="translate(-680.062 -83.607)" fill="#b8bbc1"/><path d="M848.08,117.527c1.02,3.017-.731,7.188-.731,7.188-1.388,4.643-5.87,12.662-7.232,15.712-1.913,4.284-9.458,2.436-7.513-3.269,2.649-7.785,4.192-15.053,6.135-17.431,2.542-3.113,6.522-7.764,9.341-2.2" transform="translate(-687.678 -94.963)" fill="#e8e8e8"/><path d="M773.989,237.651s4.738-.457,5.369,2.908c.463,2.467-15.965,19.944-15.965,19.944a46.641,46.641,0,0,1-5.061-4.59s7.878-10.135,10.439-13.58,3.713-4.987,5.218-4.683" transform="translate(-626.573 -196.329)" fill="#e8e8e8"/><path d="M739.167,339.885a3.069,3.069,0,0,1-2.751.343c-1.408-.6-.893-1.111-1.365-1.211s-2.911,1.384-3.343,1.235.434-.752,1.372-1.285,1.7-.794,1.487-1.033-2.266.139-2.96.461-.881.451-1.071.26.547-.69.963-.9,1.744-.493,2.033-.656.238-.362-.335-.407a3.882,3.882,0,0,0-1.865.43c-.425.247-1.079.727-1.246.6s.652-.892,1.112-1.206a11.772,11.772,0,0,1,2.3-.545c.2-.09-.078-.428-.784-.483a3.638,3.638,0,0,0-1.689.243c-.469.182-.718.5-.93.328s.481-.666,1.027-.926a5.668,5.668,0,0,1,1.85-.508,14.456,14.456,0,0,1,2.813.831.642.642,0,0,1,.388.544c-.036.021.272.212.2.591a.71.71,0,0,1,.22.635,3,3,0,0,1,.478.718,11.724,11.724,0,0,0,2.094,1.944" transform="translate(-603.211 -276.482)" fill="#fd9e7f"/></g></g></g></svg>